<?xml version="1.0" encoding="UTF-8"?>
<!DOCTYPE svg PUBLIC "-//W3C//DTD SVG 1.1//EN" "http://www.w3.org/Graphics/SVG/1.1/DTD/svg11.dtd">
<!-- Creator: CorelDRAW X8 -->
<svg xmlns="http://www.w3.org/2000/svg" xml:space="preserve" width="114.267mm" height="100mm" version="1.1" style="shape-rendering:geometricPrecision; text-rendering:geometricPrecision; image-rendering:optimizeQuality; fill-rule:evenodd; clip-rule:evenodd"
viewBox="0 0 765 669"
 xmlns:xlink="http://www.w3.org/1999/xlink">
 <defs>
  <style type="text/css">
   <![CDATA[
    .fil0 {fill:#FEFEFE}
   ]]>
  </style>
 </defs>
 <g id="Слой_x0020_1">
  <metadata id="CorelCorpID_0Corel-Layer"/>
  <path class="fil0" d="M13 325l187 93c7,4 16,4 23,-1l166 -96 -100 89c-6,5 -8,11 -8,18l0 217c0,23 29,33 43,15l80 -108 200 114c14,8 32,0 36,-16l124 -621c4,-19 -15,-34 -32,-27l-717 279c-19,8 -20,35 -2,44l0 0zm696 -263l-110 546 -189 -108c-11,-6 -24,-3 -31,7l-51 67 0 -135 273 -242c21,-19 -3,-53 -28,-38l-363 211 -127 -64 626 -244z"/>
 </g>
</svg>
