<?xml version="1.0" encoding="UTF-8"?>
<!DOCTYPE svg PUBLIC "-//W3C//DTD SVG 1.1//EN" "http://www.w3.org/Graphics/SVG/1.1/DTD/svg11.dtd">
<!-- Creator: CorelDRAW X8 -->
<svg xmlns="http://www.w3.org/2000/svg" xml:space="preserve" width="114.267mm" height="93.8092mm" version="1.1" style="shape-rendering:geometricPrecision; text-rendering:geometricPrecision; image-rendering:optimizeQuality; fill-rule:evenodd; clip-rule:evenodd"
viewBox="0 0 668 549"
 xmlns:xlink="http://www.w3.org/1999/xlink">
 <defs>
  <style type="text/css">
   <![CDATA[
    .fil0 {fill:#FEFEFE}
   ]]>
  </style>
 </defs>
 <g id="Слой_x0020_1">
  <metadata id="CorelCorpID_0Corel-Layer"/>
  <path class="fil0" d="M10 488c62,40 135,61 210,61 110,0 211,-43 284,-119 70,-74 109,-172 107,-273 26,-22 57,-66 57,-108 0,-16 -17,-26 -31,-18 -25,15 -48,18 -71,12 -48,-47 -119,-56 -179,-24 -52,28 -81,80 -79,136 -88,-11 -170,-55 -227,-124 -9,-11 -27,-10 -34,3 -27,47 -27,101 -3,145 -12,2 -19,12 -19,22 0,44 20,85 52,112 -6,6 -8,15 -5,22 14,42 46,75 86,92 -44,21 -92,28 -134,22 -22,-3 -33,27 -14,39l0 0zm216 -54c16,-12 7,-37 -12,-38 -35,0 -67,-18 -87,-45 10,0 20,-2 29,-4 21,-6 20,-37 -1,-41 -40,-8 -71,-37 -82,-74 10,3 21,4 32,4 21,0 29,-27 12,-38 -40,-26 -56,-72 -45,-115 68,70 161,111 260,116 14,1 24,-12 21,-26 -13,-58 19,-98 54,-117 35,-19 90,-24 132,20 13,13 55,14 77,9 -10,18 -25,35 -39,45 -6,4 -9,11 -9,18 5,93 -30,185 -94,253 -65,68 -155,105 -254,105 -39,0 -77,-6 -113,-18 43,-9 84,-27 119,-54l0 0z"/>
 </g>
</svg>
