<svg xmlns="http://www.w3.org/2000/svg" xmlns:xlink="http://www.w3.org/1999/xlink" viewBox="0 0 19.2 19.2"><defs><style>.a{fill:url(#a);}</style><linearGradient id="a" x1="9.6" y1="19.2" x2="9.6" gradientUnits="userSpaceOnUse"><stop offset="0" stop-color="#ff023c"/><stop offset="1" stop-color="#ff7545"/></linearGradient></defs><title>Asset 1</title><path class="a" d="M9.6,0a9.6,9.6,0,1,0,9.6,9.6A9.6,9.6,0,0,0,9.6,0Zm3.7,10.8a8.8,8.8,0,0,1,1.1,1.2h0a.4.4,0,0,1,.1.3.6.6,0,0,1-.4.2H12.5l-.6-.2-.6-.6c-.3-.3-.5-.6-.8-.6h-.1c-.2.1-.4.3-.4,1.1a.3.3,0,0,1-.3.4H9a3.7,3.7,0,0,1-2.5-1.2A17.6,17.6,0,0,1,4,7.2c-.1-.2.1-.3.2-.3H5.7a.3.3,0,0,1,.3.2,10.2,10.2,0,0,0,.6,1.2c.5.9.8,1.3,1.1,1.3h.1c.3-.2.3-1.4.3-1.6A1.6,1.6,0,0,0,8,7.2a.7.7,0,0,0-.5-.3l.2-.2h2c.3.1.3.3.3,1s0,.4,0,.7v.2c0,.4,0,.8.2,1h.1c.1,0,.4,0,1.1-1.3a9.7,9.7,0,0,0,.6-1.3h2.4c0,.1,0,.5-.8,1.6l-.4.5C12.5,10,12.5,10.1,13.3,10.8Z"/></svg>