<svg xmlns="http://www.w3.org/2000/svg" xmlns:xlink="http://www.w3.org/1999/xlink" viewBox="0 0 34.3 30.4"><defs><style>.a{fill:url(#a);}</style><linearGradient id="a" x1="17.16" y1="30.41" x2="17.16" gradientUnits="userSpaceOnUse"><stop offset="0" stop-color="#ff023c"/><stop offset="1" stop-color="#ff7545"/></linearGradient></defs><title>Asset 3</title><path class="a" d="M33.6,0H.7A.7.7,0,0,0,0,.7v29a.7.7,0,0,0,.7.7H33.6a.7.7,0,0,0,.7-.7V.7A.7.7,0,0,0,33.6,0Zm-.7,1.4V6.9H1.4V1.4ZM15.4,26.1l-.6-.8.7.7Zm.7,1.8A1.1,1.1,0,1,1,17.2,29,1.1,1.1,0,0,1,16.1,27.9ZM28.8,29A11.6,11.6,0,0,0,13.3,18.2a.7.7,0,1,0,.5,1.4A10.2,10.2,0,0,1,27.4,29H19.4a2.5,2.5,0,0,0,.2-1.1,2.5,2.5,0,0,0-2.5-2.5H17L9.4,18.2a.7.7,0,0,0-1.1,1l6.4,8.4a2.3,2.3,0,0,0,.2,1.5H7a10.1,10.1,0,0,1,1.8-5.5.7.7,0,0,0-1.2-.8,11.6,11.6,0,0,0-2,6.3H1.4V8.3H32.9V29ZM28,4.3a1.5,1.5,0,1,1,1.5,1.5A1.5,1.5,0,0,1,28,4.3Zm-4.7,0a1.5,1.5,0,1,1,1.5,1.5A1.5,1.5,0,0,1,23.3,4.3Z"/></svg>