<svg xmlns="http://www.w3.org/2000/svg" xmlns:xlink="http://www.w3.org/1999/xlink" viewBox="0 0 34.3 34.7"><defs><style>.a{fill:url(#a);}</style><linearGradient id="a" x1="17.16" y1="34.67" x2="17.16" gradientUnits="userSpaceOnUse"><stop offset="0" stop-color="#ff023c"/><stop offset="1" stop-color="#ff7545"/></linearGradient></defs><title>Asset 2</title><path class="a" d="M3.3,24.8H19.9a.7.7,0,0,0,.7-.7V21h6.7a.7.7,0,1,0,0-1.4H24V16.8h9.4a.7.7,0,0,0,.7-.7V.7a.7.7,0,0,0-.7-.7H9.4a.7.7,0,0,0-.7.7V12.8H3.3a.7.7,0,0,0-.7.7V24.1A.7.7,0,0,0,3.3,24.8Zm17.3-8.1H21v2.8h-.3Zm1.9,2.8h-.1V16.8h.1ZM10.1,1.4H32.7V15.3h-12V13.5a.7.7,0,0,0-.7-.7H10.1ZM4.1,14.3H19.2v9.1H4.1Zm28.8,8H27.4A1.5,1.5,0,0,0,26,23.7v9.5a1.5,1.5,0,0,0,1.5,1.5h5.4a1.5,1.5,0,0,0,1.5-1.5V23.7A1.5,1.5,0,0,0,32.9,22.3Zm0,10.9H27.4V23.7h5.5Zm-9.6-5.8a.7.7,0,0,1-.7.7H.7a.7.7,0,0,1,0-1.4H22.6A.7.7,0,0,1,23.3,27.4Z"/></svg>