<svg xmlns="http://www.w3.org/2000/svg" xmlns:xlink="http://www.w3.org/1999/xlink" viewBox="0 0 34.3 33"><defs><style>.a{fill:url(#a);}</style><linearGradient id="a" x1="17.16" y1="32.96" x2="17.16" gradientUnits="userSpaceOnUse"><stop offset="0" stop-color="#ff023c"/><stop offset="1" stop-color="#ff7545"/></linearGradient></defs><title>Asset 4</title><path class="a" d="M33.3,20.1l-4.2-7.7a2.7,2.7,0,0,0-1.7-1.3,2.9,2.9,0,0,0-2.3.3,2.9,2.9,0,0,0-1,1.1,2.9,2.9,0,0,0-3.8,1.2,2.9,2.9,0,0,0-2.8.1l-.6.5-2.4-3.8a2.9,2.9,0,0,0-4.9,3l5.3,8.5a6.2,6.2,0,0,0-4.9.4l-.3.3A2.9,2.9,0,0,0,11,26.8l11.5,5.4a7.8,7.8,0,0,0,3.3.8,8.1,8.1,0,0,0,5.9-2.7A8.8,8.8,0,0,0,33.3,20.1Zm-2.6,9.2a6.4,6.4,0,0,1-7.6,1.6L11.7,25.5a1.4,1.4,0,0,1-.8-1.7,5,5,0,0,1,3.4-.2l2.2,1a.7.7,0,0,0,.9-1L10.8,12.9a1.4,1.4,0,0,1,2.5-1.5l3,4.9a.7.7,0,0,0,1.3-.2,1.4,1.4,0,0,1,.6-.9,1.5,1.5,0,0,1,1.9.3.7.7,0,0,0,1.3-.4,1.4,1.4,0,0,1,2.5-.8.7.7,0,0,0,1.3-.4,1.4,1.4,0,0,1,.7-1.1,1.5,1.5,0,0,1,1.2-.2,1.3,1.3,0,0,1,.8.6L32,20.7A7.4,7.4,0,0,1,30.7,29.3ZM9.6,18.4H9.4a7,7,0,1,1,9.2-7.7.7.7,0,1,1-1.4.2A5.6,5.6,0,1,0,9.9,17a.7.7,0,0,1-.2,1.4ZM7.8,22a.7.7,0,0,1-.7.4H6.8A11.7,11.7,0,1,1,23,8.7a.7.7,0,0,1-1.4.4A10.3,10.3,0,1,0,7.4,21,.7.7,0,0,1,7.8,22Z"/></svg>