<svg xmlns="http://www.w3.org/2000/svg" xmlns:xlink="http://www.w3.org/1999/xlink" viewBox="0 0 19.2 19.2"><defs><style>.a{fill:url(#a);}</style><linearGradient id="a" x1="9.6" y1="19.2" x2="9.6" gradientUnits="userSpaceOnUse"><stop offset="0" stop-color="#ff023c"/><stop offset="1" stop-color="#ff7545"/></linearGradient></defs><title>Asset 3</title><path class="a" d="M9.9,9.6H10L9.7,9a14.6,14.6,0,0,1-4,.6h0a3.9,3.9,0,0,0,1,2.6A6.4,6.4,0,0,1,9.9,9.6ZM7.2,12.7a3.9,3.9,0,0,0,3.9.5,16.5,16.5,0,0,0-.8-2.9A5.4,5.4,0,0,0,7.2,12.7Zm4.9-6.1a3.9,3.9,0,0,0-2.6-.9H8.8A20.1,20.1,0,0,1,10.2,8,4.4,4.4,0,0,0,12.2,6.6ZM9.3,8.3A23.7,23.7,0,0,0,7.9,6.1,3.9,3.9,0,0,0,5.8,8.7h0A14.7,14.7,0,0,0,9.3,8.3Zm1.8,1.8a17.5,17.5,0,0,1,.7,2.7,3.9,3.9,0,0,0,1.6-2.5,5.8,5.8,0,0,0-1.6-.2ZM9.6,0a9.6,9.6,0,1,0,9.6,9.6A9.6,9.6,0,0,0,9.6,0Zm0,14.3a4.7,4.7,0,1,1,4.7-4.7A4.7,4.7,0,0,1,9.6,14.3Zm.9-5.6.2.5v.2h.9l1.8.2a3.9,3.9,0,0,0-.9-2.3A5.3,5.3,0,0,1,10.5,8.7Z"/></svg>