<svg xmlns="http://www.w3.org/2000/svg" xmlns:xlink="http://www.w3.org/1999/xlink" viewBox="0 0 19.2 19.2"><defs><style>.a{fill:url(#a);}</style><linearGradient id="a" x1="9.6" y1="19.2" x2="9.6" gradientUnits="userSpaceOnUse"><stop offset="0" stop-color="#ff023c"/><stop offset="1" stop-color="#ff7545"/></linearGradient></defs><title>Asset 2</title><path class="a" d="M9.6,0a9.6,9.6,0,1,0,9.6,9.6A9.6,9.6,0,0,0,9.6,0Zm1.5,6.7h2.5v.8H11.1ZM9.8,10.8a1.8,1.8,0,0,1-1.9,1.9H4.7V6.4H7.9A1.6,1.6,0,0,1,9.6,8.1a1.1,1.1,0,0,1-.9,1.2C9.9,9.3,9.8,10.8,9.8,10.8Zm4.7-.1H11.3a1,1,0,0,0,1.1,1.1c1,0,1-.7,1-.7h1.1c0,1.8-2.1,1.7-2.1,1.7A2.2,2.2,0,0,1,10,10.4,2.3,2.3,0,0,1,12.4,8C14.8,8,14.5,10.7,14.5,10.7ZM7.8,8.9H6.1V7.5H7.9s.4,0,.4.7S8,8.9,7.8,8.9Zm5.6,1h-2a1.1,1.1,0,0,1,1.1-1A.9.9,0,0,1,13.3,9.9Zm-4.8.9c0,.7-.5.8-.7.8H6.1V9.9H7.9S8.5,9.9,8.5,10.7Z"/></svg>