<?xml version="1.0" encoding="UTF-8"?>
<!DOCTYPE svg PUBLIC "-//W3C//DTD SVG 1.1//EN" "http://www.w3.org/Graphics/SVG/1.1/DTD/svg11.dtd">
<!-- Creator: CorelDRAW X8 -->
<svg xmlns="http://www.w3.org/2000/svg" xml:space="preserve" width="98.9996mm" height="99mm" version="1.1" style="shape-rendering:geometricPrecision; text-rendering:geometricPrecision; image-rendering:optimizeQuality; fill-rule:evenodd; clip-rule:evenodd"
viewBox="0 0 692 692"
 xmlns:xlink="http://www.w3.org/1999/xlink">
 <defs>
  <style type="text/css">
   <![CDATA[
    .fil0 {fill:#FEFEFE}
   ]]>
  </style>
 </defs>
 <g id="Слой_x0020_1">
  <metadata id="CorelCorpID_0Corel-Layer"/>
  <path class="fil0" d="M646 172c-31,-53 -73,-95 -126,-126 -54,-31 -112,-46 -174,-46 -62,0 -120,15 -174,46 -53,31 -95,73 -126,126 -31,54 -46,112 -46,174 0,62 15,120 46,174 31,53 73,95 126,126 54,31 112,46 174,46 62,0 120,-15 174,-46 53,-31 95,-73 126,-126 31,-54 46,-112 46,-174 0,-62 -15,-120 -46,-174zm-250 219l1 0 4 0 1 2c28,74 50,150 64,227l0 3 -2 1c-38,16 -77,24 -118,24 -70,0 -132,-22 -187,-64l-1 -1 1 -2c11,-26 28,-49 48,-70 18,-19 38,-37 60,-52 20,-14 41,-26 63,-38 9,-5 19,-9 28,-14 6,-3 12,-6 18,-8 7,-3 13,-5 20,-8zm-50 -347c76,0 143,25 199,75l3 3 -8 10c-2,3 -4,5 -6,7 -4,4 -7,8 -11,12 -10,9 -20,18 -30,26 -14,11 -30,20 -45,28 -19,11 -39,20 -59,28l-3 1 -2 -2c-32,-61 -69,-119 -111,-174l-4 -4 6 -1c23,-6 47,-9 71,-9zm-237 115c30,-37 66,-66 108,-86l3 -1 1 2c41,55 78,113 112,172l2 4 -5 2c-90,23 -183,36 -276,36l-4 0 0 -4c10,-46 30,-88 59,-125zm258 193l-16 5c-16,6 -31,14 -45,22 -20,11 -40,24 -59,37 -24,16 -45,35 -64,56 -22,23 -41,48 -56,75l-2 4 -4 -3c-24,-28 -43,-59 -57,-93 -13,-35 -20,-72 -20,-109 0,-3 0,-7 0,-10l1 -3 3 0c103,0 206,-13 305,-42l3 -1 1 2c9,17 17,34 24,51l2 3 -3 2c-2,1 -5,1 -7,2 -2,1 -4,1 -6,2zm277 42c-6,41 -21,80 -44,115 -22,35 -51,64 -85,87l-5 3 0 -5c-13,-72 -33,-144 -59,-213l-1 -4 4 0c63,-10 127,-5 188,13l3 1 -1 3zm-217 -75c-7,-14 -13,-29 -20,-43l-2 -3 4 -2c20,-8 40,-18 59,-29 16,-9 31,-18 45,-29 12,-9 22,-18 32,-27 5,-4 9,-9 13,-13 2,-2 5,-5 7,-7 3,-4 6,-8 8,-11l1 -1 3 -3 2 3c45,55 68,118 69,189l0 4 -9 -2c-4,0 -7,-1 -11,-2 -6,-1 -11,-2 -17,-2 -7,-2 -14,-3 -21,-3 -9,-1 -17,-2 -26,-3 -10,-1 -19,-1 -29,-2 -10,0 -21,0 -31,0 -11,0 -22,0 -33,1 -12,0 -23,1 -34,3l-2 0 -1 -2c-2,-2 -3,-5 -4,-8 -1,-3 -2,-5 -3,-8z"/>
 </g>
</svg>
