<?xml version="1.0" encoding="UTF-8"?>
<!DOCTYPE svg PUBLIC "-//W3C//DTD SVG 1.1//EN" "http://www.w3.org/Graphics/SVG/1.1/DTD/svg11.dtd">
<!-- Creator: CorelDRAW X8 -->
<svg xmlns="http://www.w3.org/2000/svg" xml:space="preserve" width="210.003mm" height="173.38mm" version="1.1" style="shape-rendering:geometricPrecision; text-rendering:geometricPrecision; image-rendering:optimizeQuality; fill-rule:evenodd; clip-rule:evenodd"
viewBox="0 0 15015 12397"
 xmlns:xlink="http://www.w3.org/1999/xlink">
 <defs>
  <style type="text/css">
   <![CDATA[
    .fil0 {fill:#2B2A29}
   ]]>
  </style>
 </defs>
 <g id="Слой_x0020_1">
  <metadata id="CorelCorpID_0Corel-Layer"/>
  <path class="fil0" d="M5713 12397c-2505,0 -4487,-438 -5434,-1201l-19 -15 -16 -17c-225,-225 -299,-520 -202,-810l9 -25c117,-292 404,-490 716,-492 641,-12 1202,-88 1710,-235 -811,-378 -1376,-1032 -1711,-1978 -113,-296 -16,-623 245,-818 64,-48 136,-85 214,-109 -452,-521 -785,-1113 -972,-1740l-6 -20 -4 -20c-63,-316 79,-642 338,-783 110,-62 227,-95 346,-98 -128,-275 -221,-558 -276,-844 -153,-789 -27,-1580 376,-2352l93 -186c75,-149 217,-254 381,-280 165,-27 333,27 450,145l170 170c1340,1405 2541,2072 4617,2528 93,-797 437,-1537 993,-2120 661,-694 1544,-1083 2487,-1096l5 0c688,0 1541,392 2057,669 442,-145 975,-369 1528,-606 259,-122 578,-66 781,137 200,200 255,481 149,754 -40,112 -85,223 -136,329 75,36 145,82 203,141 178,177 251,454 188,706l-7 24c-212,683 -619,1239 -1157,1589 -90,4788 -3696,8653 -8116,8653l0 0 0 0zm-4590 -1691c894,504 2595,810 4590,810 1919,0 3729,-823 5097,-2319 1380,-1507 2140,-3509 2140,-5637l0 -24c0,-193 107,-369 277,-460 346,-183 626,-495 809,-894 -188,29 -379,-46 -496,-204 -136,-182 -138,-430 -4,-615 72,-99 138,-203 196,-310 -478,201 -931,380 -1324,500 -144,43 -303,26 -434,-46 -701,-391 -1354,-625 -1747,-626 -1453,23 -2634,1266 -2634,2775 0,156 -69,301 -190,401 -120,99 -277,139 -430,108 -2393,-471 -3812,-1178 -5286,-2660 -211,506 -269,1016 -172,1520 99,510 363,1021 763,1478 152,174 172,422 50,617 -122,196 -352,287 -574,228 -173,-47 -333,-108 -484,-187 308,670 837,1288 1504,1745 193,132 273,379 195,600 -77,221 -293,363 -527,346 -256,-19 -482,-68 -690,-149 373,760 971,1179 1890,1338 218,39 389,212 424,431 34,219 -73,436 -270,540 -783,416 -1640,639 -2673,694l0 0 0 0zm0 0z"/>
 </g>
</svg>
