<?xml version="1.0" encoding="UTF-8"?>
<!DOCTYPE svg PUBLIC "-//W3C//DTD SVG 1.1//EN" "http://www.w3.org/Graphics/SVG/1.1/DTD/svg11.dtd">
<!-- Creator: CorelDRAW X8 -->
<svg xmlns="http://www.w3.org/2000/svg" xml:space="preserve" width="215.08mm" height="215.08mm" version="1.1" style="shape-rendering:geometricPrecision; text-rendering:geometricPrecision; image-rendering:optimizeQuality; fill-rule:evenodd; clip-rule:evenodd"
viewBox="0 0 10381 10381"
 xmlns:xlink="http://www.w3.org/1999/xlink">
 <defs>
  <style type="text/css">
   <![CDATA[
    .fil0 {fill:black}
   ]]>
  </style>
 </defs>
 <g id="Слой_x0020_1">
  <metadata id="CorelCorpID_0Corel-Layer"/>
  <path class="fil0" d="M8419 2212l-1628 1628c177,263 273,570 273,890 0,319 -96,627 -273,890l1276 1275c109,-49 227,-76 348,-76 475,0 860,385 860,859 0,474 -385,860 -860,860 -474,0 -859,-386 -859,-860 0,-122 27,-239 77,-349l-1276 -1276c-176,119 -374,202 -583,243l0 1668c536,139 921,625 921,1189 0,677 -550,1228 -1228,1228 -677,0 -1228,-551 -1228,-1228 0,-564 385,-1051 921,-1189l0 -1668c-209,-41 -406,-124 -583,-243l-2228 2228c71,158 108,329 108,503 0,677 -551,1228 -1229,1228 -677,0 -1228,-551 -1228,-1228 0,-677 551,-1228 1228,-1228 267,0 523,86 734,245l2181 -2182c-177,-262 -273,-570 -273,-889 0,-320 96,-627 273,-890l-1276 -1276c-109,50 -227,77 -349,77 -474,0 -859,-386 -859,-860 0,-474 385,-860 859,-860 474,0 860,386 860,860 0,122 -27,240 -77,349l1276 1276c263,-178 570,-273 890,-273 319,0 627,95 890,273l1675 -1675c-71,-158 -108,-329 -108,-503 0,-677 551,-1228 1229,-1228 677,0 1228,551 1228,1228 0,678 -551,1229 -1228,1229 -267,0 -523,-87 -734,-245zm-6147 -431c0,136 111,246 246,246 136,0 246,-110 246,-246 0,-135 -110,-246 -246,-246 -135,0 -246,111 -246,246zm-1044 7618c339,0 615,-276 615,-615 0,-339 -276,-615 -615,-615 -339,0 -614,276 -614,615 0,339 275,615 614,615zm4853 -246c0,-339 -275,-615 -614,-615 -339,0 -615,276 -615,615 0,338 276,614 615,614 339,0 614,-276 614,-614zm-614 -3440c542,0 983,-441 983,-983 0,-542 -441,-983 -983,-983 -542,0 -983,441 -983,983 0,542 441,983 983,983zm3194 1965c0,-135 -110,-246 -246,-246 -135,0 -246,111 -246,246 0,136 111,246 246,246 136,0 246,-110 246,-246zm492 -5835c338,0 614,-276 614,-615 0,-339 -276,-614 -614,-614 -339,0 -615,275 -615,614 0,339 276,615 615,615z"/>
 </g>
</svg>
