<?xml version="1.0" encoding="UTF-8"?>
<!DOCTYPE svg PUBLIC "-//W3C//DTD SVG 1.1//EN" "http://www.w3.org/Graphics/SVG/1.1/DTD/svg11.dtd">
<!-- Creator: CorelDRAW X8 -->
<svg xmlns="http://www.w3.org/2000/svg" xml:space="preserve" width="209.999mm" height="195.137mm" version="1.1" style="shape-rendering:geometricPrecision; text-rendering:geometricPrecision; image-rendering:optimizeQuality; fill-rule:evenodd; clip-rule:evenodd"
viewBox="0 0 48797 45343"
 xmlns:xlink="http://www.w3.org/1999/xlink">
 <defs>
  <style type="text/css">
   <![CDATA[
    .fil0 {fill:#E31E24}
   ]]>
  </style>
 </defs>
 <g id="Слой_x0020_1">
  <metadata id="CorelCorpID_0Corel-Layer"/>
  <g id="_963066784">
   <g id="_980905664">
    <g>
     <g>
      <path class="fil0" d="M44807 4263c-2525,-2713 -6062,-4257 -9767,-4263 -3708,4 -7248,1547 -9776,4261l-861 910 -862 -910c-5016,-5399 -13459,-5708 -18858,-693 -239,222 -470,454 -692,693 -5321,5739 -5321,14609 0,20348l19146 20190c661,699 1765,729 2465,66 22,-21 45,-43 67,-66l19138 -20190c5320,-5739 5320,-14608 0,-20346l0 0zm-2523 17945l-3 0 -17878 18857 -17881 -18857c-4065,-4385 -4065,-11162 0,-15547 3691,-4001 9927,-4252 13928,-561 194,179 381,366 560,561l2127 2243c700,696 1830,696 2532,0l2125 -2241c3692,-4002 9928,-4253 13929,-562 194,181 380,367 561,562 4099,4392 4129,11180 0,15545l0 0z"/>
     </g>
    </g>
    <g>
    </g>
    <g>
    </g>
    <g>
    </g>
    <g>
    </g>
    <g>
    </g>
    <g>
    </g>
    <g>
    </g>
    <g>
    </g>
    <g>
    </g>
    <g>
    </g>
    <g>
    </g>
    <g>
    </g>
    <g>
    </g>
    <g>
    </g>
    <g>
    </g>
   </g>
  </g>
 </g>
</svg>
