<?xml version="1.0" encoding="UTF-8"?>
<!DOCTYPE svg PUBLIC "-//W3C//DTD SVG 1.1//EN" "http://www.w3.org/Graphics/SVG/1.1/DTD/svg11.dtd">
<!-- Creator: CorelDRAW X8 -->
<svg xmlns="http://www.w3.org/2000/svg" xml:space="preserve" width="97.0005mm" height="97.0191mm" version="1.1" style="shape-rendering:geometricPrecision; text-rendering:geometricPrecision; image-rendering:optimizeQuality; fill-rule:evenodd; clip-rule:evenodd"
viewBox="0 0 806 806"
 xmlns:xlink="http://www.w3.org/1999/xlink">
 <defs>
  <style type="text/css">
   <![CDATA[
    .fil0 {fill:#FEFEFE}
   ]]>
  </style>
 </defs>
 <g id="Слой_x0020_1">
  <metadata id="CorelCorpID_0Corel-Layer"/>
  <g id="_933642864">
   <g>
    <path class="fil0" d="M804 234c-2,-34 -7,-66 -19,-97 -10,-27 -25,-50 -45,-70l0 0c-20,-20 -44,-36 -70,-46 -32,-12 -64,-17 -97,-18 -10,-1 -19,-1 -28,-2 -17,0 -33,-1 -50,-1 -30,0 -61,0 -92,0 -31,0 -61,0 -92,0 -17,0 -33,1 -50,1 -9,1 -18,1 -27,1 -34,2 -66,7 -97,19 -27,10 -50,26 -70,46l0 0c-20,19 -36,43 -46,70 -12,31 -17,63 -18,97 -1,9 -1,18 -2,28 0,16 -1,32 -1,49 0,31 0,61 0,92 0,31 0,62 0,93 0,16 1,32 1,49 1,9 1,18 1,27 2,34 7,66 19,98 10,26 26,50 46,70 20,20 43,35 70,45 31,12 63,17 97,19 9,0 18,1 27,1 17,0 33,1 50,1 30,0 61,0 92,0 31,0 62,0 92,0 17,0 33,-1 50,-1 9,0 18,-1 27,-1 34,-2 66,-7 97,-19 53,-20 96,-62 116,-115 12,-32 17,-64 19,-98 0,-9 0,-18 1,-27 0,-17 1,-33 1,-49 0,-31 0,-62 0,-93 0,-31 0,-61 0,-92 0,-17 0,-33 -1,-50 0,-9 -1,-18 -1,-27zm-696 -126c14,-15 31,-26 50,-33 26,-9 52,-13 79,-14 9,-1 18,-1 28,-2 16,0 32,0 48,-1 30,0 60,0 90,0 31,0 61,0 91,0 16,1 32,1 49,1 9,1 18,1 27,2 27,1 53,4 79,14 19,7 36,18 50,33 15,14 26,31 33,50 9,26 13,52 14,79 1,9 1,18 2,28 0,16 0,32 1,48 0,30 0,60 0,90 0,31 0,61 0,91 -1,16 -1,32 -1,48 -1,9 -1,19 -2,28 -1,27 -4,53 -14,79 -15,38 -45,68 -83,83 -26,10 -52,13 -79,14 -9,1 -19,1 -28,2 -16,0 -32,0 -48,1 -30,0 -61,0 -91,0 -30,0 -60,0 -90,0 -16,-1 -33,-1 -49,-1 -9,-1 -18,-1 -27,-2 -28,-1 -53,-4 -79,-14 -19,-7 -36,-18 -50,-33 -15,-14 -26,-31 -33,-50 -10,-26 -13,-52 -15,-79 0,-9 0,-18 -1,-28 0,-16 -1,-32 -1,-48 0,-30 0,-60 0,-91 0,-30 0,-60 0,-90 0,-16 1,-32 1,-49 1,-9 1,-18 1,-27 2,-27 5,-53 15,-79 7,-19 18,-36 33,-50z"/>
   </g>
   <g>
    <path class="fil0" d="M403 200c-112,0 -203,91 -203,203 0,112 91,203 203,203 112,0 203,-91 203,-203 0,-112 -91,-203 -203,-203zm0 349c-80,0 -145,-66 -145,-146 0,-80 65,-145 145,-145 80,0 146,65 146,145 0,80 -66,146 -146,146z"/>
   </g>
   <g>
    <path class="fil0" d="M664 183c0,-22 -18,-41 -41,-41 -23,0 -41,19 -41,41 0,23 18,41 41,41 23,0 41,-18 41,-41z"/>
   </g>
  </g>
 </g>
</svg>
